<svg width="66" height="68" viewBox="0 0 66 68" fill="none" xmlns="http://www.w3.org/2000/svg">
<path d="M44.9378 15.9422C49.1155 15.9422 52.5022 12.5555 52.5022 8.37783C52.5022 4.20014 49.1155 0.813446 44.9378 0.813446C40.7601 0.813446 37.3734 4.20014 37.3734 8.37783C37.3734 12.5555 40.7601 15.9422 44.9378 15.9422Z" fill="url(#paint0_linear_1720_103)"/>
<path d="M22.0167 10.1793C24.7342 10.1793 26.9373 7.97625 26.9373 5.25868C26.9373 2.5411 24.7342 0.338074 22.0167 0.338074C19.2991 0.338074 17.0961 2.5411 17.0961 5.25868C17.0961 7.97625 19.2991 10.1793 22.0167 10.1793Z" fill="url(#paint1_linear_1720_103)"/>
<path d="M60.5419 30.8486C63.4192 30.8486 65.7517 28.5161 65.7517 25.6389C65.7517 22.7616 63.4192 20.4291 60.5419 20.4291C57.6647 20.4291 55.3322 22.7616 55.3322 25.6389C55.3322 28.5161 57.6647 30.8486 60.5419 30.8486Z" fill="url(#paint2_linear_1720_103)"/>
<path d="M17.6104 7.66615C17.6104 7.66615 2.59282 14.7691 0.260397 32.0162C-2.07202 49.2633 11.5222 66.5132 30.6986 67.122C49.8751 67.7308 65.3986 49.0604 62.0514 30.3426C62.0514 30.3426 65.1956 29.3529 65.6543 26.6146C66.1102 23.8763 64.3088 21.0602 61.3926 20.7294C58.4764 20.3986 56.75 23.5205 52.1602 20.8295C52.1602 20.8295 48.2543 18.0634 50.8675 13.0927C50.8675 13.0927 53.8727 9.41477 52.1241 5.60895C50.3727 1.80313 45.3881 -0.365267 41.1653 2.22291C36.9425 4.81109 39.7197 8.76703 31.502 8.50015C31.502 8.50015 28.2689 8.00531 27.0123 4.31347C25.7558 0.621632 22.3336 0.382553 20.2764 1.09145C18.2192 1.80591 15.9869 4.31625 17.6104 7.66615Z" fill="url(#paint3_linear_1720_103)"/>
<path d="M30.4818 66.6828C47.3153 66.6828 60.9617 53.0364 60.9617 36.2029C60.9617 19.3693 47.3153 5.72293 30.4818 5.72293C13.6482 5.72293 0.00183105 19.3693 0.00183105 36.2029C0.00183105 53.0364 13.6482 66.6828 30.4818 66.6828Z" fill="url(#paint4_linear_1720_103)"/>
<path d="M31.3853 58.1176C43.7418 58.1176 53.7587 48.1007 53.7587 35.7442C53.7587 23.3877 43.7418 13.3707 31.3853 13.3707C19.0288 13.3707 9.01184 23.3877 9.01184 35.7442C9.01184 48.1007 19.0288 58.1176 31.3853 58.1176Z" fill="white"/>
<path d="M47.2535 57.0696C46.2638 57.0696 45.769 56.5747 45.769 55.585V42.697H17.6715V55.585C17.6715 56.5747 17.1767 57.0696 16.187 57.0696H15.6532C14.6635 57.0696 14.1687 56.5747 14.1687 55.585V16.9764C14.1687 15.9867 14.6635 15.4919 15.6532 15.4919H16.187C17.1767 15.4919 17.6715 15.9867 17.6715 16.9764V39.4277H45.7662V16.9764C45.7662 15.9867 46.261 15.4919 47.2507 15.4919H47.7845C48.7741 15.4919 49.269 15.9867 49.269 16.9764V55.585C49.269 56.5747 48.7741 57.0696 47.7845 57.0696H47.2535Z" fill="url(#paint5_linear_1720_103)"/>
<defs>
<linearGradient id="paint0_linear_1720_103" x1="126.108" y1="-117.887" x2="-166.581" y2="337.408" gradientUnits="userSpaceOnUse">
<stop stop-color="#3EBEB1"/>
<stop offset="0.209" stop-color="#3FBBB1"/>
<stop offset="0.3803" stop-color="#3CB4B2"/>
<stop offset="0.5383" stop-color="#35ABB5"/>
<stop offset="0.6882" stop-color="#2C9DB7"/>
<stop offset="0.8325" stop-color="#228CB9"/>
<stop offset="0.9707" stop-color="#1877B9"/>
<stop offset="1" stop-color="#1372BA"/>
</linearGradient>
<linearGradient id="paint1_linear_1720_103" x1="74.8131" y1="-76.872" x2="-115.567" y2="219.275" gradientUnits="userSpaceOnUse">
<stop stop-color="#3EBEB1"/>
<stop offset="0.209" stop-color="#3FBBB1"/>
<stop offset="0.3803" stop-color="#3CB4B2"/>
<stop offset="0.5383" stop-color="#35ABB5"/>
<stop offset="0.6882" stop-color="#2C9DB7"/>
<stop offset="0.8325" stop-color="#228CB9"/>
<stop offset="0.9707" stop-color="#1877B9"/>
<stop offset="1" stop-color="#1372BA"/>
</linearGradient>
<linearGradient id="paint2_linear_1720_103" x1="116.444" y1="-61.32" x2="-85.1284" y2="252.237" gradientUnits="userSpaceOnUse">
<stop stop-color="#3EBEB1"/>
<stop offset="0.209" stop-color="#3FBBB1"/>
<stop offset="0.3803" stop-color="#3CB4B2"/>
<stop offset="0.5383" stop-color="#35ABB5"/>
<stop offset="0.6882" stop-color="#2C9DB7"/>
<stop offset="0.8325" stop-color="#228CB9"/>
<stop offset="0.9707" stop-color="#1877B9"/>
<stop offset="1" stop-color="#1372BA"/>
</linearGradient>
<linearGradient id="paint3_linear_1720_103" x1="73.9929" y1="-24.4423" x2="13.7241" y2="60.482" gradientUnits="userSpaceOnUse">
<stop offset="0.547455" stop-color="#EBA417"/>
</linearGradient>
<linearGradient id="paint4_linear_1720_103" x1="72.3474" y1="-17.2919" x2="9.73883" y2="62.7079" gradientUnits="userSpaceOnUse">
<stop stop-color="#EBA417"/>
<stop offset="0.209" stop-color="#EBA417"/>
<stop offset="0.3803" stop-color="#EBA417"/>
<stop offset="0.5383" stop-color="#EBA417"/>
<stop offset="0.6882" stop-color="#EBA417"/>
<stop offset="0.8325" stop-color="#EBA417"/>
<stop offset="0.9707" stop-color="#1877B9"/>
<stop offset="1" stop-color="#121214"/>
</linearGradient>
<linearGradient id="paint5_linear_1720_103" x1="68.3573" y1="-10.5336" x2="13.5674" y2="59.4757" gradientUnits="userSpaceOnUse">
<stop stop-color="#EBA417"/>
<stop offset="0.209" stop-color="#EBA417"/>
<stop offset="0.3803" stop-color="#EBA417"/>
<stop offset="0.516204" stop-color="#EBA417"/>
<stop offset="0.6882" stop-color="#EBA417"/>
<stop offset="0.844335" stop-color="#EBA417"/>
<stop offset="0.9707" stop-color="#1877B9"/>
<stop offset="1" stop-color="#EBA417"/>
</linearGradient>
</defs>
</svg>
